<svg width="161" height="79" viewBox="0 0 161 79" fill="none" xmlns="http://www.w3.org/2000/svg">
<path d="M38.5233 26.0612L25.7072 28.3507L25.3776 28.4095L25.2009 28.6949L18.3587 39.7709L12.3479 9.24678L38.5233 26.0612Z" fill="#F03882" stroke="white" stroke-width="1.5"/>
<rect x="32" y="38.1663" width="129" height="40" fill="white"/>
<path d="M59.1636 51.9403L59.9785 47.8423H51.9296L48 70.6352H56.0043L56.8192 66.2477L68.5772 68.9523C72.1272 69.7719 74.8037 68.1847 75.4428 64.308C76.7824 56.2158 75.56 47.6975 67.1204 47.6975C63.9499 47.7057 60.746 49.3886 59.1747 51.9512L59.1636 51.9403ZM68.3316 61.5978L59.6799 59.5461C60.238 57.2403 62.708 54.3909 65.8784 55.0465C68.4014 55.5684 68.9986 59.1882 68.3428 61.6088L68.3316 61.5978Z" fill="#F03882"/>
<path d="M89.4952 54.4007C91.6289 54.4007 93.3561 56.1111 93.3561 58.9561C93.3561 61.801 91.6289 63.5114 89.4952 63.5114C88.0727 63.5114 87.2599 62.9018 86.7519 62.1567H86.718V66.187H85.3633V54.6378H86.718V55.7047H86.7519C87.2599 55.0442 88.0727 54.4007 89.4952 54.4007ZM89.3258 62.326C91.1039 62.326 92.0014 60.6495 92.0014 58.9561C92.0014 57.2626 91.1039 55.5861 89.3258 55.5861C87.7171 55.5861 86.718 56.9239 86.718 58.9561C86.718 60.9882 87.7171 62.326 89.3258 62.326Z" fill="#151515"/>
<path d="M95.6196 52.9613C95.247 52.9613 94.7729 52.6734 94.7729 52.1485C94.7729 51.6235 95.247 51.3356 95.6196 51.3356C96.0091 51.3356 96.4663 51.6235 96.4663 52.1485C96.4663 52.6734 96.0091 52.9613 95.6196 52.9613ZM94.9422 54.6378H96.2969V63.2743H94.9422V54.6378Z" fill="#151515"/>
<path d="M102.562 54.4007C104.137 54.4007 105.458 55.2644 105.458 57.2457V63.2743H104.103V57.5844C104.103 56.4667 103.578 55.5861 102.223 55.5861C100.699 55.5861 99.6831 56.5514 99.6831 57.8892V63.2743H98.3284V54.6378H99.6831V55.6708H99.717C100.174 55.0612 101.089 54.4007 102.562 54.4007Z" fill="#151515"/>
<path d="M107.275 51.1663H108.63V58.3464L112.592 54.6378H114.286L110.916 57.8384L114.641 63.2743H113.032L109.967 58.6343L108.63 59.8705V63.2743H107.275V51.1663Z" fill="#151515"/>
<path d="M124.586 54.4007C126.33 54.4007 127.177 55.4337 127.177 57.2457V63.2743H125.822V57.5844C125.822 56.4667 125.602 55.5861 124.247 55.5861C122.892 55.5861 122.046 56.5514 122.046 57.8892V63.2743H120.691V57.5844C120.691 56.4667 120.471 55.5861 119.116 55.5861C117.761 55.5861 116.915 56.5514 116.915 57.8892V63.2743H115.56V54.6378H116.915V55.6708H116.949C117.406 55.0612 118.151 54.4007 119.455 54.4007C120.691 54.4007 121.402 54.9257 121.758 55.8909H121.792C122.384 55.0781 123.282 54.4007 124.586 54.4007Z" fill="#151515"/>
<path d="M134.272 56.8393C134.272 56.1619 133.899 55.5861 132.51 55.5861C130.868 55.5861 130.326 56.0603 130.241 57.3134H128.887C128.971 55.6539 130.004 54.4007 132.51 54.4007C134.153 54.4007 135.626 55.0442 135.626 57.1272V61.3269C135.626 62.0043 135.745 62.3768 136.608 62.2752V63.2235C136.253 63.3421 136.067 63.359 135.813 63.359C135 63.359 134.509 63.1389 134.272 62.1905H134.238C133.696 63.0034 132.731 63.5114 131.308 63.5114C129.564 63.5114 128.463 62.5123 128.463 61.0559C128.463 59.0915 129.92 58.5835 132.155 58.1602C133.611 57.8892 134.272 57.7029 134.272 56.8393ZM131.444 62.326C133.052 62.326 134.272 61.5978 134.272 59.9383V58.4988C134.018 58.7529 133.188 58.9899 132.273 59.1762C130.597 59.5318 129.818 59.9552 129.818 60.9882C129.818 61.8349 130.326 62.326 131.444 62.326Z" fill="#151515"/>
<path d="M141.854 54.4007C143.429 54.4007 144.75 55.2644 144.75 57.2457V63.2743H143.395V57.5844C143.395 56.4667 142.87 55.5861 141.515 55.5861C139.991 55.5861 138.975 56.5514 138.975 57.8892V63.2743H137.62V54.6378H138.975V55.6708H139.009C139.466 55.0612 140.381 54.4007 141.854 54.4007Z" fill="#151515"/>
</svg>
