<svg width="136" height="78" viewBox="0 0 136 78" fill="none" xmlns="http://www.w3.org/2000/svg">
<path d="M38.5233 26.0612L25.7072 28.3507L25.3776 28.4095L25.2009 28.6949L18.3587 39.7709L12.3479 9.24678L38.5233 26.0612Z" fill="#4398D9" stroke="white" stroke-width="1.5"/>
<rect x="32" y="38.0002" width="104" height="40" fill="white"/>
<path d="M65.9002 54.972H49.1331L48 58.2928H64.7671L65.9002 54.972ZM67.7144 49.9846H51.0226L49.8142 53.3085H66.5813L67.7144 49.9846ZM69.6008 45.0002H52.8336L51.6252 48.3242H68.3923L69.6008 45.0002Z" fill="#009DE0"/>
<path d="M77.5327 69.925L71.2646 49.9846H75.6463L78.0631 58.6695C78.7442 61.2369 79.1209 62.596 79.5729 64.7868C80.0248 62.7467 80.254 61.7642 81.0826 58.8201L83.4994 49.9814H87.7304L81.4624 69.9218H77.5327V69.925ZM94.3783 69.925V53.3085H88.6375V49.9846H104.651L103.518 53.3085H98.3833V69.925H94.3783ZM109.862 57.9915H112.128C112.809 57.9915 113.186 57.9915 113.487 57.9162C114.394 57.6148 114.997 56.7831 114.997 55.65C114.997 54.2909 114.391 53.6851 113.487 53.4592C113.11 53.3838 112.73 53.3085 111.977 53.3085H109.862V57.9915ZM109.937 61.3907V66.601H112.73C113.562 66.601 114.315 66.5257 114.846 65.9953C115.373 65.4679 115.678 64.7868 115.678 63.9551C115.678 63.274 115.527 62.6713 115.15 62.2194C114.545 61.4629 113.867 61.3123 112.583 61.3123H109.94V61.3907H109.937ZM116.28 59.3506C117.037 59.7272 117.79 60.1823 118.17 60.4836C119.378 61.4661 119.83 62.7498 119.83 64.4102C119.83 67.1283 118.396 69.0932 115.979 69.699C115.223 69.9249 114.469 70.0003 113.11 70.0003H105.86V49.9846H112.278C113.562 49.9846 114.469 50.0599 115.301 50.2859C117.643 50.8917 119.152 52.4767 119.152 55.0442C119.152 56.4033 118.7 57.5364 117.869 58.2928C117.489 58.5973 117.037 58.9739 116.28 59.3506Z" fill="#243571"/>
</svg>
